<svg width="120" height="120" viewBox="0 0 120 120" xmlns="http://www.w3.org/2000/svg">
  <!-- Define gradients -->
  <defs>
    <radialGradient id="pinkGlow" cx="50%" cy="50%" r="80%" fx="50%" fy="50%">
      <stop offset="0%" stop-color="#FDF2F8" />
      <stop offset="60%" stop-color="#FBCFE8" />
      <stop offset="100%" stop-color="#DB2777" />
    </radialGradient>
    <linearGradient id="purpleGradient" x1="0%" y1="0%" x2="100%" y2="100%">
      <stop offset="10%" stop-color="#F472B6" />
      <stop offset="90%" stop-color="#BE185D" />
    </linearGradient>
  </defs>
  
  <!-- Background glow -->
  <circle cx="60" cy="60" r="55" fill="url(#pinkGlow)" opacity="0.8" />
  
  <!-- Stylized abstract shape in center -->
  <g transform="translate(60, 60)">
    <!-- Abstract flowing shapes -->
    <path d="M0,-30 C15,-25 30,-15 20,0 C30,15 15,30 0,20 C-15,30 -30,15 -20,0 C-30,-15 -15,-25 0,-30" 
          fill="url(#purpleGradient)" 
          opacity="0.9"
          transform="rotate(30)">
      <animateTransform 
        attributeName="transform"
        type="rotate"
        from="0"
        to="360"
        dur="20s"
        repeatCount="indefinite" />
    </path>
    
    <!-- Inner flowing shape -->
    <path d="M0,-20 C10,-15 20,-10 15,0 C20,10 10,20 0,15 C-10,20 -20,10 -15,0 C-20,-10 -10,-15 0,-20" 
          fill="#fff" 
          opacity="0.7"
          transform="rotate(-15)">
      <animateTransform 
        attributeName="transform"
        type="rotate"
        from="360"
        to="0"
        dur="15s"
        repeatCount="indefinite" />
    </path>
    
    <!-- Center dot -->
    <circle cx="0" cy="0" r="8" fill="#F9A8D4">
      <animate 
        attributeName="r" 
        values="8;10;8" 
        dur="2s" 
        repeatCount="indefinite" />
    </circle>
  </g>
  
  <!-- Particles -->
  <circle cx="40" cy="35" r="2" fill="#F472B6" opacity="0.8">
    <animate attributeName="opacity" values="0.8;0.2;0.8" dur="3s" repeatCount="indefinite" />
  </circle>
  <circle cx="75" cy="40" r="3" fill="#DB2777" opacity="0.6">
    <animate attributeName="opacity" values="0.6;0.1;0.6" dur="2.5s" repeatCount="indefinite" />
  </circle>
  <circle cx="80" cy="70" r="2" fill="#F472B6" opacity="0.7">
    <animate attributeName="opacity" values="0.7;0.3;0.7" dur="4s" repeatCount="indefinite" />
  </circle>
  <circle cx="35" cy="80" r="3" fill="#DB2777" opacity="0.5">
    <animate attributeName="opacity" values="0.5;0.2;0.5" dur="3.5s" repeatCount="indefinite" />
  </circle>
</svg>
